<svg width="16" height="16" viewBox="0 0 16 16" fill="none" xmlns="http://www.w3.org/2000/svg">
<circle cx="8" cy="8" r="7.15789" stroke="#020024" stroke-width="1.68421"/>
<path d="M7.34 7.16H8.94V12.5H7.34V7.16ZM7 4.12C7 3.81333 7.1 3.55333 7.3 3.34C7.51333 3.11333 7.78 3 8.1 3C8.42 3 8.69333 3.11333 8.92 3.34C9.14667 3.55333 9.26 3.81333 9.26 4.12C9.26 4.42667 9.14667 4.68 8.92 4.88C8.69333 5.08 8.42 5.18 8.1 5.18C7.78 5.18 7.51333 5.08 7.3 4.88C7.1 4.68 7 4.42667 7 4.12Z" fill="#020024"/>
</svg>
