<svg width="48" height="48" viewBox="0 0 48 48" fill="none" xmlns="http://www.w3.org/2000/svg">
<circle cx="24" cy="24" r="24" fill="white"/>
<ellipse cx="23" cy="15.8947" rx="7.5" ry="7.89474" fill="#195079"/>
<path d="M36.5 19.0527L36.5 28.5264" stroke="#195079" stroke-width="2" stroke-linecap="round"/>
<path d="M41 23.7891L32 23.7891" stroke="#195079" stroke-width="2" stroke-linecap="round"/>
<path d="M33.9686 35.3851C34.5282 35.2517 34.864 34.6724 34.6419 34.1418C33.8302 32.2033 32.42 30.4991 30.5628 29.2313C28.3932 27.7501 25.7348 26.9473 23 26.9473C20.2652 26.9473 17.6068 27.7501 15.4372 29.2313C13.58 30.4991 12.1698 32.2032 11.3581 34.1418C11.136 34.6724 11.4718 35.2517 12.0314 35.3851L13.7245 35.7887C19.8227 37.2425 26.1773 37.2425 32.2755 35.7887L33.9686 35.3851Z" fill="#195079"/>
</svg>
