<svg width="38" height="35" viewBox="0 0 38 35" fill="none" xmlns="http://www.w3.org/2000/svg">
<path d="M10.3296 16.6318L10.3296 9.26381C10.3296 4.69987 14.0294 1.00006 18.5933 1.00006V1.00006C23.1573 1.00006 26.8571 4.69987 26.8571 9.26381L26.8571 16.6318" stroke="#195079" stroke-width="2" stroke-linecap="round"/>
<path d="M1.74444 14.4189C1.89709 12.6864 1.97342 11.8201 2.54674 11.295C3.12007 10.77 3.98971 10.77 5.729 10.77H31.4579C33.1972 10.77 34.0668 10.77 34.6401 11.295C35.2135 11.8201 35.2898 12.6864 35.4424 14.4189L36.9952 32.0422C37.0848 33.0597 37.1297 33.5684 36.8324 33.8931C36.5351 34.2177 36.0244 34.2177 35.0029 34.2177H2.18396C1.16251 34.2177 0.651788 34.2177 0.354497 33.8931C0.0572064 33.5684 0.102032 33.0597 0.191683 32.0422L1.74444 14.4189Z" fill="#195079"/>
</svg>
