<svg width="36" height="33" viewBox="0 0 36 33" fill="none" xmlns="http://www.w3.org/2000/svg">
<path d="M9.94995 16.0576L9.94995 8.96043C9.94995 4.56424 13.5138 1.00042 17.91 1.00042V1.00042C22.3061 1.00042 25.87 4.56423 25.87 8.96042L25.87 16.0576" stroke="white" stroke-width="1.46218" stroke-linecap="round"/>
<path d="M1.75495 13.0788C1.86656 11.8122 1.92236 11.1788 2.34151 10.795C2.76066 10.4111 3.39645 10.4111 4.66802 10.4111H31.152C32.4236 10.4111 33.0593 10.4111 33.4785 10.795C33.8976 11.1788 33.9534 11.8122 34.065 13.0788L35.6799 31.4064C35.7454 32.1503 35.7782 32.5223 35.5608 32.7596C35.3435 32.9969 34.9701 32.9969 34.2233 32.9969H1.59667C0.849901 32.9969 0.476515 32.9969 0.259169 32.7596C0.0418229 32.5223 0.0745944 32.1503 0.140137 31.4064L1.75495 13.0788Z" fill="white"/>
</svg>
