<svg width="56" height="57" viewBox="0 0 56 57" fill="none" xmlns="http://www.w3.org/2000/svg">
<path fill-rule="evenodd" clip-rule="evenodd" d="M7.23769 21.4601C7.09473 21.9114 7.09473 22.4679 7.09473 23.581V42.2912C7.09473 44.4568 7.09473 45.5395 7.76747 46.2123C8.44021 46.885 9.52298 46.885 11.6885 46.885H43.845C46.0105 46.885 47.0933 46.885 47.766 46.2123C48.4388 45.5395 48.4388 44.4568 48.4388 42.2912V23.581C48.4388 22.4679 48.4388 21.9114 48.2958 21.4601C47.9949 20.5102 47.2508 19.7662 46.301 19.4653C45.8497 19.3223 45.2931 19.3223 44.1801 19.3223C43.4657 19.3223 43.1084 19.3223 42.7838 19.251C42.1046 19.1018 41.4964 18.7259 41.0592 18.1852C40.8503 17.9267 40.6905 17.6072 40.371 16.9682L40.371 16.9682L37.8008 11.8277L37.8007 11.8277C37.3889 11.004 37.183 10.5921 36.813 10.3635C36.4429 10.1348 35.9825 10.1348 35.0616 10.1348H20.4719C19.551 10.1348 19.0905 10.1348 18.7205 10.3635C18.3505 10.5922 18.1446 11.004 17.7327 11.8277L15.1625 16.9682C14.843 17.6072 14.6832 17.9267 14.4743 18.1852C14.0371 18.7259 13.4289 19.1018 12.7497 19.251C12.425 19.3223 12.0678 19.3223 11.3534 19.3223C10.2403 19.3223 9.6838 19.3223 9.23246 19.4653C8.28265 19.7662 7.53855 20.5102 7.23769 21.4601ZM35.423 30.8068C35.423 35.0352 31.9952 38.4631 27.7667 38.4631C23.5383 38.4631 20.1104 35.0352 20.1104 30.8068C20.1104 26.5783 23.5383 23.1505 27.7667 23.1505C31.9952 23.1505 35.423 26.5783 35.423 30.8068ZM36.9543 30.8068C36.9543 35.8809 32.8409 39.9943 27.7667 39.9943C22.6926 39.9943 18.5792 35.8809 18.5792 30.8068C18.5792 25.7326 22.6926 21.6192 27.7667 21.6192C32.8409 21.6192 36.9543 25.7326 36.9543 30.8068Z" fill="#D8D9DA"/>
</svg>
