<svg width="24" height="25" viewBox="0 0 24 25" fill="none" xmlns="http://www.w3.org/2000/svg">
<path fill-rule="evenodd" clip-rule="evenodd" d="M17.204 10.9433L19.0272 9.09528L19.0272 9.09526L19.0273 9.09524C19.5746 8.54043 19.8483 8.26301 19.9927 7.963C20.2566 7.41475 20.2566 6.77617 19.9927 6.22793C19.8483 5.92791 19.5746 5.65049 19.0272 5.09565L19.0272 5.09564C18.4663 4.5271 18.1859 4.24283 17.8817 4.09345C17.3257 3.82041 16.6745 3.82041 16.1185 4.09345C15.8143 4.24283 15.5339 4.5271 14.973 5.09564L14.973 5.09565L13.1823 6.91076C14.1449 8.57696 15.53 9.97053 17.204 10.9433ZM11.7339 8.37893L4.84425 15.3626L4.84424 15.3626C4.42522 15.7874 4.2157 15.9997 4.07819 16.2596C3.94068 16.5194 3.88293 16.8121 3.76743 17.3975L3.14529 20.5507C3.07963 20.8834 3.0468 21.0498 3.14166 21.1442C3.23651 21.2386 3.40273 21.2049 3.73518 21.1375L6.80426 20.5153C7.39775 20.395 7.69449 20.3348 7.9568 20.1928C8.2191 20.0509 8.43175 19.8353 8.85704 19.4042L15.7608 12.4062C14.135 11.3739 12.7609 9.99626 11.7339 8.37893Z" fill="#D8D9DA"/>
</svg>
