<svg width="17" height="16" viewBox="0 0 17 16" fill="none" xmlns="http://www.w3.org/2000/svg">
<circle cx="8.90143" cy="8" r="7.15789" fill="white" stroke="#B10061" stroke-width="1.68421"/>
<path d="M7.63824 2.52637H10.1646V7.56064L9.54078 10.2634H8.26203L7.63824 7.56064V2.52637ZM7.63824 12.618C7.63824 12.2311 7.7526 11.9271 7.98132 11.706C8.21004 11.4739 8.51154 11.3578 8.88581 11.3578C9.28087 11.3578 9.59276 11.4739 9.82148 11.706C10.0502 11.9271 10.1646 12.2311 10.1646 12.618C10.1646 13.0049 10.0502 13.3144 9.82148 13.5466C9.59276 13.7787 9.28087 13.8948 8.88581 13.8948C8.51154 13.8948 8.21004 13.7787 7.98132 13.5466C7.7526 13.3144 7.63824 13.0049 7.63824 12.618Z" fill="#B10061"/>
</svg>
