<svg width="25" height="24" viewBox="0 0 25 24" fill="none" xmlns="http://www.w3.org/2000/svg">
<path fill-rule="evenodd" clip-rule="evenodd" d="M13.1715 17.804C14.6544 17.0348 19.7734 14.0163 19.7734 9C19.7734 5.13401 16.6394 2 12.7734 2C8.90744 2 5.77344 5.13401 5.77344 9C5.77344 14.0163 10.8925 17.0348 12.3754 17.804C12.6283 17.9351 12.9186 17.9351 13.1715 17.804ZM12.7734 12C14.4303 12 15.7734 10.6569 15.7734 9C15.7734 7.34315 14.4303 6 12.7734 6C11.1166 6 9.77344 7.34315 9.77344 9C9.77344 10.6569 11.1166 12 12.7734 12Z" fill="#195079"/>
<path d="M18.8356 16.5C19.45 16.9561 19.7734 17.4734 19.7734 18C19.7734 18.5266 19.45 19.0439 18.8356 19.5C18.2212 19.9561 17.3376 20.3348 16.2734 20.5981C15.2093 20.8614 14.0022 21 12.7734 21C11.5447 21 10.3376 20.8614 9.27344 20.5981C8.2093 20.3348 7.32564 19.9561 6.71126 19.5C6.09688 19.0439 5.77344 18.5266 5.77344 18C5.77344 17.4734 6.09688 16.9561 6.71126 16.5" stroke="#195079" stroke-width="2" stroke-linecap="round"/>
</svg>
