<svg width="19" height="14" viewBox="0 0 19 14" fill="none" xmlns="http://www.w3.org/2000/svg">
<path fill-rule="evenodd" clip-rule="evenodd" d="M1.65212 0.87868C0.773438 1.75736 0.773438 3.17157 0.773438 6V8C0.773438 10.8284 0.773438 12.2426 1.65212 13.1213C2.5308 14 3.94501 14 6.77344 14H12.7734C15.6019 14 17.0161 14 17.8948 13.1213C18.7734 12.2426 18.7734 10.8284 18.7734 8V6C18.7734 3.17157 18.7734 1.75736 17.8948 0.87868C17.0161 0 15.6019 0 12.7734 0H6.77344C3.94501 0 2.5308 0 1.65212 0.87868ZM4.32814 3.16795C3.86861 2.8616 3.24774 2.98577 2.94139 3.4453C2.63503 3.90483 2.75921 4.5257 3.21874 4.83205L8.66404 8.46225C9.33584 8.91012 10.211 8.91012 10.8828 8.46225L16.3281 4.83205C16.7877 4.5257 16.9118 3.90483 16.6055 3.4453C16.2991 2.98577 15.6783 2.8616 15.2187 3.16795L9.77344 6.79815L4.32814 3.16795Z" fill="#195079"/>
</svg>
