<svg width="78" height="92" viewBox="0 0 78 92" fill="none" xmlns="http://www.w3.org/2000/svg">
<path d="M76.8996 7.00034C76.9996 8.10034 73.3996 17.1003 70.0996 18.7003C69.9996 18.8003 65.2996 27.2003 65.8996 30.5003C65.9996 31.0003 66.1996 34.3003 65.8996 35.4003C65.6996 36.1003 64.7996 41.0003 65.6996 42.7003C65.9996 43.2003 68.7996 44.9003 68.5996 46.2003C68.3996 47.0003 70.6996 47.0003 71.2996 48.3003C71.9996 49.8003 71.6996 53.4003 67.5996 50.8003C67.7996 50.9003 67.1996 50.5003 67.1996 50.3003C67.1996 49.7003 57.7996 46.0003 56.3996 48.7003C56.1996 49.1003 46.3996 69.4003 46.1996 70.1003C45.8996 70.9003 46.3996 71.4003 47.1996 71.3003C48.4996 71.2003 56.1996 71.2003 58.7996 71.9003C59.8996 72.1003 60.2996 74.3003 57.3996 74.2003C52.7996 74.1003 42.3996 74.2003 41.8996 74.2003C41.9996 74.3003 43.2996 74.8003 43.2996 75.2003C43.2996 75.9003 41.6996 75.7003 41.3996 75.5003C41.9996 77.2003 33.7996 74.5003 32.1996 74.5003C30.1996 74.5003 21.9996 74.1003 19.8996 73.5003C19.3996 73.4003 17.4996 70.7003 16.9996 70.9003C-18.6004 88.4003 29.2996 90.2003 53.2996 81.7003C52.1996 84.7003 26.4996 92.9003 8.49961 91.0003C-5.60039 88.1003 -2.00039 67.0003 18.0996 66.6003C12.0996 55.6003 13.6996 45.0003 18.0996 38.3003C20.9996 33.9003 24.7996 30.6003 29.1996 27.7003C33.1996 25.1003 37.4996 23.1003 41.9996 21.6003C46.5996 20.0003 49.2996 16.7003 50.9996 12.4003C51.0996 12.2003 51.0996 12.0003 50.7996 11.9003C44.4996 6.10034 48.8996 3.30034 50.5996 3.30034C52.6996 3.30034 54.6996 5.70034 54.9996 6.10034C55.2996 5.80034 58.6996 1.00034 63.5996 1.00034C64.8996 1.30034 68.6996 1.90034 69.9996 1.50034C71.4996 1.00034 72.9996 0.500336 74.4996 0.100336C75.5996 -0.199664 76.6996 1.00034 76.4996 2.20034C76.3996 2.20034 77.6996 5.30034 76.8996 7.00034Z" fill="white"/>
</svg>
