<svg width="24" height="24" viewBox="0 0 24 24" fill="none" xmlns="http://www.w3.org/2000/svg">
<path d="M7.17474 3.68235L7.76246 3.09464C8.13671 2.72038 8.74349 2.72038 9.11775 3.09464L11.5958 5.57268C11.97 5.94693 11.97 6.55372 11.5958 6.92797L9.87807 8.6457C9.59164 8.93213 9.52063 9.3697 9.70178 9.73201C10.749 11.8265 12.4473 13.5248 14.5417 14.572C14.9041 14.7531 15.3416 14.6821 15.6281 14.3957L17.3458 12.678C17.72 12.3037 18.3268 12.3037 18.7011 12.678L21.1791 15.156C21.5534 15.5303 21.5534 16.137 21.1791 16.5113L20.5914 17.099C18.568 19.1224 15.3647 19.35 13.0755 17.6332L11.9175 16.7646C10.2466 15.5114 8.76231 14.0272 7.50915 12.3563L6.64061 11.1982C4.92371 8.90903 5.15136 5.70573 7.17474 3.68235Z" fill="#195079"/>
</svg>
