<svg width="32" height="32" viewBox="0 0 32 32" fill="none" xmlns="http://www.w3.org/2000/svg">
<path d="M19 5.33301H13C8.75736 5.33301 6.63604 5.33301 5.31802 6.67195C4 8.01089 4 10.1659 4 14.4759V17.5235C4 21.8335 4 23.9885 5.31802 25.3274C6.63604 26.6663 8.75736 26.6663 13 26.6663H19C23.2426 26.6663 25.364 26.6663 26.682 25.3274C28 23.9885 28 21.8335 28 17.5235V14.4759C28 10.1659 28 8.01089 26.682 6.67195C25.364 5.33301 23.2426 5.33301 19 5.33301Z" stroke="#195079" stroke-width="2"/>
<path d="M9.33301 10.667H13.333" stroke="#195079" stroke-width="2" stroke-linecap="round"/>
<path d="M20 19.333V17.9997C20 17.0569 20 16.5855 20.2929 16.2926C20.5858 15.9997 21.0572 15.9997 22 15.9997H26C26.9428 15.9997 27.4142 15.9997 27.7071 16.2926C28 16.5855 28 17.0569 28 17.9997V19.333C28 20.2758 28 20.7472 27.7071 21.0401C27.4142 21.333 26.9428 21.333 26 21.333H22C21.0572 21.333 20.5858 21.333 20.2929 21.0401C20 20.7472 20 20.2758 20 19.333Z" stroke="#195079" stroke-width="2"/>
</svg>
