<svg width="48" height="48" viewBox="0 0 48 48" fill="none" xmlns="http://www.w3.org/2000/svg"><circle cx="24" cy="24" r="24" fill="#fff"/><ellipse cx="23" cy="15.89" rx="7.5" ry="7.89" fill="#195079"/><path d="M36.5 19.053v9.473M41 23.79h-9" stroke="#195079" stroke-width="2" stroke-linecap="round"/><path d="M33.969 35.385c.56-.133.895-.713.673-1.243-.812-1.939-2.222-3.643-4.08-4.91-2.169-1.482-4.827-2.285-7.562-2.285-2.735 0-5.393.803-7.563 2.284-1.857 1.268-3.267 2.972-4.079 4.91-.222.531.114 1.11.673 1.244l1.694.404a39.998 39.998 0 0018.55 0l1.694-.404z" fill="#195079"/></svg>