<svg width="38" height="35" viewBox="0 0 38 35" fill="none" xmlns="http://www.w3.org/2000/svg"><path d="M10.33 16.632V9.264C10.33 4.7 14.03 1 18.593 1v0c4.564 0 8.264 3.7 8.264 8.264v7.368" stroke="#195079" stroke-width="2" stroke-linecap="round"/><path d="M1.744 14.419c.153-1.733.23-2.599.803-3.124.573-.525 1.443-.525 3.182-.525h25.729c1.74 0 2.609 0 3.182.525.574.525.65 1.391.802 3.124l1.553 17.623c.09 1.018.135 1.526-.163 1.851-.297.325-.808.325-1.83.325H2.185c-1.021 0-1.532 0-1.83-.325-.297-.325-.252-.833-.162-1.85l1.552-17.624z" fill="#195079"/></svg>