<svg width="36" height="33" viewBox="0 0 36 33" fill="none" xmlns="http://www.w3.org/2000/svg"><path d="M9.95 16.058V8.96A7.96 7.96 0 0117.91 1v0a7.96 7.96 0 017.96 7.96v7.098" stroke="#fff" stroke-width="1.46" stroke-linecap="round"/><path d="M1.755 13.079c.112-1.267.167-1.9.587-2.284.419-.384 1.054-.384 2.326-.384h26.484c1.272 0 1.907 0 2.326.384.42.384.475 1.017.587 2.284l1.615 18.327c.065.744.098 1.116-.12 1.354-.217.237-.59.237-1.337.237H1.597c-.747 0-1.12 0-1.338-.237-.217-.238-.184-.61-.119-1.354L1.755 13.08z" fill="#fff"/></svg>