<svg width="56" height="57" viewBox="0 0 56 57" fill="none" xmlns="http://www.w3.org/2000/svg"><path fill-rule="evenodd" clip-rule="evenodd" d="M7.238 21.46c-.143.451-.143 1.008-.143 2.121v18.71c0 2.166 0 3.248.672 3.921.673.673 1.756.673 3.921.673h32.157c2.166 0 3.248 0 3.921-.673.673-.673.673-1.755.673-3.92V23.58c0-1.113 0-1.67-.143-2.12a3.063 3.063 0 00-1.995-1.996c-.451-.143-1.008-.143-2.12-.143-.715 0-1.073 0-1.397-.071a3.063 3.063 0 01-1.725-1.066c-.209-.258-.368-.578-.688-1.217l-2.57-5.14c-.412-.824-.618-1.236-.988-1.464-.37-.23-.83-.23-1.751-.23h-14.59c-.921 0-1.382 0-1.752.23-.37.228-.575.64-.987 1.464l-2.57 5.14c-.32.64-.48.959-.689 1.217a3.063 3.063 0 01-1.724 1.066c-.325.071-.682.071-1.397.071-1.113 0-1.67 0-2.12.143a3.062 3.062 0 00-1.995 1.995zm28.185 9.347a7.656 7.656 0 11-15.313 0 7.656 7.656 0 0115.313 0zm1.531 0a9.188 9.188 0 11-18.375 0 9.188 9.188 0 0118.375 0z" fill="#D8D9DA"/></svg>