<svg width="24" height="24" viewBox="0 0 24 24" fill="none" xmlns="http://www.w3.org/2000/svg"><path fill-rule="evenodd" clip-rule="evenodd" d="M21 6H3v3a2 2 0 012 2v4c0 2.828 0 4.243.879 5.121C6.757 21 8.172 21 11 21h2c2.828 0 4.243 0 5.121-.879C19 19.243 19 17.828 19 15v-4a2 2 0 012-2V6zm-10.5 5a1 1 0 10-2 0v5a1 1 0 102 0v-5zm5 0a1 1 0 10-2 0v5a1 1 0 102 0v-5z" fill="#195079"/><path d="M10.068 3.37c.114-.106.365-.2.715-.267A6.68 6.68 0 0112 3c.44 0 .868.036 1.217.103.35.067.6.161.715.268" stroke="#195079" stroke-width="2" stroke-linecap="round"/></svg>