<svg width="24" height="25" viewBox="0 0 24 25" fill="none" xmlns="http://www.w3.org/2000/svg"><path fill-rule="evenodd" clip-rule="evenodd" d="M17.204 10.943l1.823-1.848c.548-.555.821-.832.966-1.132a2 2 0 000-1.735c-.145-.3-.418-.578-.966-1.132-.56-.569-.841-.853-1.145-1.003a2 2 0 00-1.764 0c-.304.15-.584.434-1.145 1.003l-1.79 1.815a11.07 11.07 0 004.021 4.032zm-5.47-2.564l-6.89 6.984c-.419.424-.628.637-.766.897-.137.26-.195.552-.31 1.137l-.623 3.154c-.065.332-.098.499-.003.593.095.095.26.06.593-.006l3.07-.623c.593-.12.89-.18 1.152-.322.262-.142.475-.358.9-.789l6.904-6.998c-1.626-1.032-3-2.41-4.027-4.027z" fill="#D8D9DA"/></svg>