<svg width="25" height="24" viewBox="0 0 25 24" fill="none" xmlns="http://www.w3.org/2000/svg"><path fill-rule="evenodd" clip-rule="evenodd" d="M13.171 17.804c1.483-.77 6.602-3.788 6.602-8.804a7 7 0 10-14 0c0 5.016 5.12 8.035 6.602 8.804a.855.855 0 00.796 0zM12.774 12a3 3 0 100-6 3 3 0 000 6z" fill="#195079"/><path d="M18.836 16.5c.614.456.937.973.937 1.5s-.323 1.044-.937 1.5c-.615.456-1.498.835-2.563 1.098-1.064.263-2.27.402-3.5.402-1.228 0-2.435-.139-3.5-.402-1.064-.263-1.947-.642-2.562-1.098-.614-.456-.938-.973-.938-1.5s.324-1.044.938-1.5" stroke="#195079" stroke-width="2" stroke-linecap="round"/></svg>