<svg width="19" height="14" viewBox="0 0 19 14" fill="none" xmlns="http://www.w3.org/2000/svg"><path fill-rule="evenodd" clip-rule="evenodd" d="M1.652.879C.773 1.757.773 3.172.773 6v2c0 2.828 0 4.243.88 5.121C2.53 14 3.944 14 6.772 14h6c2.829 0 4.243 0 5.122-.879.878-.878.878-2.293.878-5.121V6c0-2.828 0-4.243-.878-5.121C17.016 0 15.602 0 12.773 0h-6c-2.828 0-4.242 0-5.12.879zm2.676 2.289a1 1 0 00-1.11 1.664l5.446 3.63a2 2 0 002.219 0l5.445-3.63a1 1 0 10-1.11-1.664l-5.445 3.63-5.445-3.63z" fill="#195079"/></svg>