<svg width="78" height="92" viewBox="0 0 78 92" fill="none" xmlns="http://www.w3.org/2000/svg"><path d="M76.9 7c.1 1.1-3.5 10.1-6.8 11.7-.1.1-4.8 8.5-4.2 11.8.1.5.3 3.8 0 4.9-.2.7-1.1 5.6-.2 7.3.3.5 3.1 2.2 2.9 3.5-.2.8 2.1.8 2.7 2.1.7 1.5.4 5.1-3.7 2.5.2.1-.4-.3-.4-.5 0-.6-9.4-4.3-10.8-1.6-.2.4-10 20.7-10.2 21.4-.3.8.2 1.3 1 1.2 1.3-.1 9-.1 11.6.6 1.1.2 1.5 2.4-1.4 2.3-4.6-.1-15 0-15.5 0 .1.1 1.4.6 1.4 1 0 .7-1.6.5-1.9.3.6 1.7-7.6-1-9.2-1-2 0-10.2-.4-12.3-1-.5-.1-2.4-2.8-2.9-2.6-35.6 17.5 12.3 19.3 36.3 10.8-1.1 3-26.8 11.2-44.8 9.3C-5.6 88.1-2 67 18.1 66.6c-6-11-4.4-21.6 0-28.3 2.9-4.4 6.7-7.7 11.1-10.6 4-2.6 8.3-4.6 12.8-6.1 4.6-1.6 7.3-4.9 9-9.2.1-.2.1-.4-.2-.5-6.3-5.8-1.9-8.6-.2-8.6 2.1 0 4.1 2.4 4.4 2.8.3-.3 3.7-5.1 8.6-5.1 1.3.3 5.1.9 6.4.5 1.5-.5 3-1 4.5-1.4 1.1-.3 2.2.9 2 2.1-.1 0 1.2 3.1.4 4.8z" fill="#fff"/></svg>