<svg width="32" height="32" viewBox="0 0 32 32" fill="none" xmlns="http://www.w3.org/2000/svg"><path d="M19 5.333h-6c-4.243 0-6.364 0-7.682 1.339C4 8.01 4 10.166 4 14.476v3.047c0 4.31 0 6.465 1.318 7.804 1.318 1.34 3.44 1.34 7.682 1.34h6c4.243 0 6.364 0 7.682-1.34C28 23.988 28 21.833 28 17.523v-3.047c0-4.31 0-6.465-1.318-7.804-1.318-1.339-3.44-1.339-7.682-1.339z" stroke="#195079" stroke-width="2"/><path d="M9.333 10.667h4" stroke="#195079" stroke-width="2" stroke-linecap="round"/><path d="M20 19.333V18c0-.943 0-1.415.293-1.707C20.586 16 21.057 16 22 16h4c.943 0 1.414 0 1.707.293.293.293.293.764.293 1.707v1.333c0 .943 0 1.414-.293 1.707-.293.293-.764.293-1.707.293h-4c-.943 0-1.414 0-1.707-.293C20 20.747 20 20.276 20 19.333z" stroke="#195079" stroke-width="2"/></svg>